<svg width="48" height="48" viewBox="0 0 48 48" fill="none" xmlns="http://www.w3.org/2000/svg">
<path d="M13.3914 4.39868C15.0913 4.39874 16.4692 5.77693 16.4695 7.47681C16.4695 9.17697 15.0915 10.5559 13.3914 10.5559H12.5095L15.6726 13.719C19.1511 17.1976 21.886 21.2797 23.783 25.717C25.68 21.2794 28.4166 17.1978 31.8953 13.719L35.0583 10.5559H34.1765C32.4767 10.5557 31.0974 9.17695 31.0974 7.47681C31.0977 5.77695 32.4769 4.39886 34.1765 4.39868H42.49C44.1898 4.39868 45.5688 5.77684 45.5691 7.47681V15.7913C45.569 17.4915 44.1899 18.8694 42.49 18.8694C40.7903 18.8691 39.4119 17.4913 39.4119 15.7913V14.9094L36.2488 18.0725C30.2391 24.0823 26.8622 32.2335 26.8621 40.7327C26.8621 42.4326 25.4841 43.8117 23.7839 43.8118C22.0838 43.8116 20.7048 42.4325 20.7048 40.7327C20.7047 32.2336 17.3288 24.0823 11.3191 18.0725L8.15601 14.9094V15.7913C8.15595 17.4914 6.77707 18.8694 5.0769 18.8694C3.37706 18.869 1.99883 17.4912 1.99878 15.7913V7.47681C1.99911 5.77712 3.37723 4.39906 5.0769 4.39868H13.3914Z" fill="#153202"/>
</svg>
